<?xml version="1.0" standalone="no"?>
<!DOCTYPE svg PUBLIC "-//W3C//DTD SVG 20010904//EN"
 "http://www.w3.org/TR/2001/REC-SVG-20010904/DTD/svg10.dtd">
<svg version="1.0" xmlns="http://www.w3.org/2000/svg"
 width="512.000000pt" height="512.000000pt" viewBox="0 0 512.000000 512.000000"
 preserveAspectRatio="xMidYMid meet">
<metadata>
Created by potrace 1.14, written by Peter Selinger 2001-2017
</metadata>
<g transform="translate(0.000000,512.000000) scale(0.100000,-0.100000)"
fill="#000000" stroke="none">
<path d="M2507 5105 c-41 -21 -646 -630 -658 -662 -22 -58 -4 -94 95 -194 165
-168 180 -179 229 -179 55 0 62 6 244 188 l143 143 145 -145 c183 -183 187
-186 241 -186 51 0 66 11 221 168 65 66 104 114 108 133 15 68 7 79 -325 411
-174 174 -329 322 -344 328 -37 14 -66 13 -99 -5z"/>
<path d="M2438 3795 c-1 -1 -25 -5 -53 -9 -166 -19 -378 -104 -532 -212 -86
-60 -234 -209 -296 -296 -88 -125 -171 -317 -197 -458 -19 -102 -21 -119 -24
-220 -14 -603 411 -1121 1014 -1234 95 -18 311 -18 415 0 117 21 258 70 376
131 3 2 232 -223 510 -500 518 -517 537 -534 600 -523 13 3 32 5 43 5 21 1
301 273 322 313 20 39 23 87 7 128 -9 24 -175 196 -510 532 l-497 497 42 88
c38 80 67 154 77 193 23 86 35 145 41 195 28 229 -17 489 -120 694 -176 350
-527 609 -905 666 -40 6 -307 15 -313 10z m296 -625 c191 -58 344 -201 410
-383 88 -244 15 -523 -179 -686 -117 -97 -233 -142 -380 -147 -115 -4 -190 10
-287 54 -203 94 -352 314 -360 533 -12 329 210 594 547 652 50 9 185 -4 249
-23z"/>
<path d="M673 3269 c-13 -5 -166 -152 -342 -327 -335 -335 -341 -343 -326
-414 11 -47 636 -672 683 -683 60 -13 86 2 199 113 148 145 163 165 163 218 0
51 -4 57 -192 245 l-139 138 149 149 c81 81 156 159 165 172 10 14 17 43 17
67 0 33 -7 50 -32 79 -52 59 -211 215 -236 232 -27 18 -78 23 -109 11z"/>
<path d="M4355 3271 c-22 -10 -242 -224 -269 -262 -20 -30 -21 -98 -1 -127 9
-12 84 -89 166 -172 l151 -151 -150 -149 c-83 -82 -157 -159 -166 -172 -24
-33 -20 -100 6 -133 50 -64 236 -239 267 -252 74 -31 77 -29 426 320 340 340
345 347 330 419 -6 25 -80 104 -319 343 -171 170 -318 316 -327 323 -21 16
-88 24 -114 13z"/>
<path d="M2107 1030 c-40 -32 -223 -216 -245 -247 -17 -25 -19 -40 -14 -106 1
-10 148 -163 325 -341 246 -246 331 -325 355 -331 72 -15 80 -9 419 330 178
178 323 327 324 332 0 4 2 17 4 28 11 55 -7 84 -119 198 -62 62 -125 122 -140
135 -34 26 -100 30 -133 7 -12 -8 -89 -83 -172 -166 l-151 -150 -148 148 c-81
82 -158 156 -172 166 -34 24 -101 22 -133 -3z"/>
</g>
</svg>
